<svg width="101" height="26" fill="none" xmlns="http://www.w3.org/2000/svg"><path d="M97.705 4.58h.44c.212 0 .356-.031.434-.093a.305.305 0 0 0 .114-.249.302.302 0 0 0-.055-.179.323.323 0 0 0-.155-.116c-.065-.028-.187-.04-.365-.04h-.413v.678Zm-.365 1.27V3.597h.775c.264 0 .456.02.576.062a.558.558 0 0 1 .282.22c.07.102.106.212.106.328 0 .165-.06.308-.177.43a.702.702 0 0 1-.468.205c.08.033.143.073.192.12.089.087.2.237.331.446l.275.443h-.448l-.198-.356c-.159-.278-.284-.453-.377-.524a.457.457 0 0 0-.29-.08h-.214v.96h-.365Zm.917-2.91c-.295 0-.582.075-.861.226-.276.15-.504.374-.655.65-.154.266-.236.569-.236.877 0 .302.077.592.23.87.156.277.373.493.652.647.264.153.565.233.87.233.303 0 .593-.077.87-.233.274-.15.499-.374.649-.647.151-.265.231-.565.232-.87 0-.305-.079-.598-.236-.878a1.62 1.62 0 0 0-.655-.65 1.797 1.797 0 0 0-.86-.225Zm0-.346c.352 0 .697.09 1.032.27.331.177.603.447.783.776.189.337.282.688.282 1.053 0 .36-.092.709-.277 1.042-.18.328-.449.598-.777.778a2.12 2.12 0 0 1-2.087 0 1.973 1.973 0 0 1-.777-.778 2.12 2.12 0 0 1-.278-1.042c0-.365.094-.716.283-1.053.18-.329.453-.598.784-.775.337-.18.68-.271 1.032-.271Z" fill="#4A4656"/><path fill-rule="evenodd" clip-rule="evenodd" d="M11.447.003c-1.05.028-2.109.248-3.114.61C4.439 2.238 1.73 5.784.506 10.039a16.985 16.985 0 0 0-.465 2.422c0 .027-.064.84.052.62.116-.193.167-.477.232-.696.593-1.999 1.316-3.817 2.424-5.545C5.406 2.933 9.674.42 14.186 1.812c.838.283 1.586.696 2.334 1.186.141.103 1.186.928.954.18-.194-.592-.683-1.096-1.11-1.496C14.932.442 13.2-.044 11.448.003Zm32.935 3.91c-.606 0-1.07.207-1.393.632-.335.412-.49 1.032-.49 1.844v5.88c-.748-.825-1.52-1.419-2.307-1.82a5.693 5.693 0 0 0-1.716-.514 8.637 8.637 0 0 0-1.185-.077c-1.973 0-3.585.695-4.796 2.087-1.213 1.393-1.819 3.328-1.819 5.816 0 1.174.156 2.269.452 3.275.31 1.005.76 1.882 1.353 2.63a6.327 6.327 0 0 0 2.114 1.728A5.913 5.913 0 0 0 37.24 26c.426 0 .838-.04 1.237-.117.254-.04.504-.1.748-.18a6.363 6.363 0 0 0 1.69-.876c.529-.388 1.044-.89 1.585-1.496v.386c0 .736.181 1.29.529 1.69.348.386.813.593 1.354.593.528 0 .992-.193 1.34-.567.349-.387.516-.954.516-1.716V6.182c0-.734-.154-1.302-.477-1.689-.334-.386-.8-.58-1.38-.58Zm48.659 0c-.606 0-1.07.207-1.392.632-.323.412-.49 1.032-.49 1.844v5.88c-.748-.825-1.522-1.419-2.308-1.82a5.585 5.585 0 0 0-1.715-.514 8.635 8.635 0 0 0-1.186-.077c-1.972 0-3.571.695-4.797 2.087-1.211 1.393-1.818 3.328-1.818 5.816 0 1.174.155 2.269.464 3.275.31 1.005.748 1.882 1.341 2.63a6.32 6.32 0 0 0 2.115 1.728c.812.399 1.69.606 2.644.606.437 0 .85-.04 1.237-.117a4.8 4.8 0 0 0 .747-.18 6.356 6.356 0 0 0 1.69-.876c.528-.388 1.057-.89 1.585-1.496v.386c0 .736.18 1.29.529 1.69.361.386.812.593 1.353.593.555 0 1.006-.193 1.355-.567.348-.387.528-.954.528-1.716V6.182c0-.734-.167-1.302-.489-1.689-.335-.386-.787-.58-1.394-.58ZM10.43 4.987a3.247 3.247 0 0 0-1.57.358A3.259 3.259 0 0 0 7.429 9.74a3.259 3.259 0 0 0 4.396 1.432 3.26 3.26 0 0 0 1.432-4.396 3.256 3.256 0 0 0-2.826-1.79Zm44.923 4.818c-1.148.014-2.192.207-3.146.567a6.795 6.795 0 0 0-2.475 1.652 7.235 7.235 0 0 0-1.535 2.591 9.968 9.968 0 0 0-.529 3.275c0 2.502.723 4.46 2.14 5.917 1.342 1.38 3.186 2.102 5.545 2.18.142.013.27.013.413.013 1.121 0 2.101-.142 2.965-.438.864-.298 1.573-.658 2.14-1.097.58-.45.993-.915 1.277-1.392.284-.477.425-.902.425-1.25 0-.4-.128-.722-.373-.942-.257-.219-.594-.335-.993-.335-.387 0-.67.09-.877.258-.397.377-.8.747-1.212 1.109-.324.273-.665.527-1.019.76a4.14 4.14 0 0 1-1.147.516 4.568 4.568 0 0 1-1.302.168c-.104 0-.207 0-.297-.014a3.538 3.538 0 0 1-1.65-.516c-.58-.347-1.058-.862-1.405-1.533-.361-.696-.542-1.496-.555-2.398h7.787c1.032 0 1.844-.155 2.424-.438.568-.31.852-.955.852-1.947 0-1.084-.271-2.14-.826-3.185-.554-1.032-1.392-1.882-2.5-2.54-1.11-.657-2.452-.98-3.998-.98h-.129Zm15.924 0c-1.148.014-2.205.207-3.146.567a6.972 6.972 0 0 0-2.49 1.652 7.392 7.392 0 0 0-1.52 2.591 9.958 9.958 0 0 0-.529 3.275c0 2.502.709 4.46 2.127 5.917 1.34 1.38 3.198 2.102 5.558 2.18.13.013.27.013.411.013 1.11 0 2.103-.142 2.966-.438.864-.298 1.573-.658 2.14-1.097.569-.45.993-.915 1.277-1.392.283-.477.426-.902.426-1.25 0-.4-.13-.722-.388-.942-.244-.219-.58-.335-.992-.335-.375 0-.658.09-.864.258-.503.464-.902.838-1.212 1.109-.329.273-.673.527-1.032.76-.36.232-.747.413-1.133.516-.4.116-.825.168-1.303.168-.103 0-.206 0-.296-.014a3.542 3.542 0 0 1-1.651-.516c-.593-.347-1.058-.862-1.418-1.533-.349-.696-.53-1.496-.542-2.398h7.774c1.045 0 1.857-.155 2.425-.438.58-.31.863-.955.863-1.947 0-1.084-.283-2.14-.838-3.185-.554-1.032-1.38-1.882-2.501-2.54-1.11-.657-2.436-.98-3.997-.98h-.115Zm-54.152.027c-.58 0-1.032.193-1.354.567-.335.36-.503.928-.503 1.689v11.487c0 .774.18 1.38.554 1.793.374.425.838.632 1.418.632.593 0 1.07-.207 1.445-.606.373-.413.567-1.007.567-1.819v-4.963c0-1.638.09-2.734.284-3.327a3.67 3.67 0 0 1 1.29-1.753 3.273 3.273 0 0 1 1.933-.632c1.082 0 1.818.349 2.18 1.044.36.697.541 1.702.541 3.018v6.613c0 .774.18 1.38.554 1.793.373.425.851.632 1.444.632.58 0 1.057-.207 1.418-.62.361-.399.554-1.006.554-1.805v-7.387c0-.876-.038-1.6-.116-2.153a4.494 4.494 0 0 0-.515-1.586 4.317 4.317 0 0 0-1.844-1.934c-.825-.452-1.766-.683-2.81-.683-1.084 0-2.038.218-2.876.644-.825.438-1.585 1.11-2.296 2.037v-.489c0-.464-.076-.864-.244-1.2-.167-.334-.4-.58-.683-.748a1.802 1.802 0 0 0-.941-.244Zm38.216 2.746h.012c1.03 0 1.87.335 2.5 1.006.646.67 1.007 1.689 1.11 3.056h-7.22c.142-1.341.528-2.36 1.16-3.043.632-.683 1.444-1.02 2.437-1.02Zm15.923 0h.013c1.031 0 1.868.335 2.5 1.006.632.67 1.006 1.689 1.096 3.056h-7.207c.129-1.341.516-2.36 1.16-3.043.633-.683 1.445-1.02 2.438-1.02Zm-32.84.232h.051c.684 0 1.316.206 1.883.606.593.4 1.058.98 1.406 1.74.336.761.516 1.677.516 2.734 0 1.135-.18 2.076-.516 2.823-.348.748-.813 1.302-1.393 1.663a3.493 3.493 0 0 1-1.896.543h-.012a3.451 3.451 0 0 1-1.909-.568c-.592-.386-1.044-.954-1.379-1.701-.335-.761-.503-1.677-.503-2.76 0-1.018.156-1.921.465-2.682.322-.773.76-1.367 1.34-1.78.568-.425 1.225-.618 1.948-.618Zm48.672 0h.039c.683 0 1.315.206 1.895.606.58.4 1.045.98 1.393 1.74.348.761.516 1.677.516 2.734 0 1.135-.168 2.076-.516 2.823-.348.748-.813 1.302-1.38 1.663a3.53 3.53 0 0 1-1.908.543h-.012a3.452 3.452 0 0 1-1.91-.568c-.579-.386-1.043-.954-1.378-1.701-.335-.761-.503-1.677-.503-2.76 0-1.018.153-1.92.476-2.682.31-.773.761-1.367 1.329-1.78.58-.425 1.224-.618 1.959-.618Zm-74.459.13a6.86 6.86 0 0 1-3.532.966c-.27 0-.529-.013-.8-.039v9.49c0 .876.207 1.534.607 1.973.412.45.916.67 1.547.67.644 0 1.174-.22 1.572-.658.4-.438.607-1.095.607-1.985V12.94Z" fill="#4A4656"/></svg>