<svg width="161" height="26" fill="none" xmlns="http://www.w3.org/2000/svg"><path d="M159.659 9.05h-2.613l-.327-2.89a.502.502 0 0 0-.496-.443h-2.909a.369.369 0 0 0-.258.106.358.358 0 0 0-.107.259V9.05l.026 3.105v5.358c0 .68.076 1.297.229 1.85.153.552.403 1.028.751 1.428.347.4.81.706 1.386.918.576.213 1.289.32 2.138.32.441 0 .882-.04 1.323-.115.315-.055.591-.116.829-.183a.364.364 0 0 0 .261-.357l-.038-2.303a.366.366 0 0 0-.44-.35c-.26.05-.525.074-.79.075-.594 0-1.005-.148-1.234-.447-.229-.298-.344-.744-.344-1.34v-4.854h2.613a.366.366 0 0 0 .365-.365V9.415a.366.366 0 0 0-.365-.365ZM46.337 10.213A4.135 4.135 0 0 0 44.9 9.03c-.577-.297-1.274-.448-2.09-.457l.002-.001h-.075c-.045 0-.089.003-.134.004-.942.023-1.747.198-2.413.53-.608.303-1.1.632-1.476.984l-.246-.808a.5.5 0 0 0-.477-.354h-2.777a.364.364 0 0 0-.365.365v11.943a.365.365 0 0 0 .365.365h3.469a.364.364 0 0 0 .365-.365V14.73c0-.356.046-.7.14-1.03.093-.332.233-.624.42-.879.182-.251.422-.456.7-.598.28-.144.606-.216.979-.216s.682.072.929.216c.24.14.438.342.572.586.136.246.233.53.293.852.06.323.089.662.089 1.018v6.557a.365.365 0 0 0 .365.365h3.469a.366.366 0 0 0 .365-.365v-7.473c0-.627-.08-1.255-.242-1.883a4.668 4.668 0 0 0-.789-1.667Zm31.315 8.003a2.883 2.883 0 0 1-.941-.738 3.106 3.106 0 0 1-.573-1.056 3.968 3.968 0 0 1-.19-1.209c0-.407.063-.805.19-1.196.127-.39.318-.733.573-1.03.254-.297.567-.539.941-.725.373-.187.806-.28 1.298-.28.475 0 .899.093 1.272.28.373.186.691.432.955.737.262.306.466.654.61 1.044a3.436 3.436 0 0 1-.61 3.435 3.046 3.046 0 0 1-.955.738c-.373.187-.797.28-1.272.28-.492 0-.925-.093-1.298-.28Zm7.982-14.243H82.19a.365.365 0 0 0-.364.364v5.94h-.051c-.357-.424-.857-.814-1.502-1.17-.644-.357-1.433-.535-2.366-.535-.916 0-1.743.178-2.481.534a5.665 5.665 0 0 0-1.883 1.45 6.597 6.597 0 0 0-1.197 2.125c-.28.806-.42 1.65-.42 2.533 0 .882.136 1.73.408 2.544a6.539 6.539 0 0 0 1.183 2.15 5.836 5.836 0 0 0 1.896 1.489c.746.373 1.594.56 2.544.56.115 0 .229-.004.342-.01.99-.022 1.837-.204 2.536-.552.602-.3 1.092-.624 1.477-.97l.269.83a.5.5 0 0 0 .475.346h2.578a.365.365 0 0 0 .365-.365V4.337a.363.363 0 0 0-.365-.364Zm22.849 4.955h-3.536a.366.366 0 0 0-.352.268l-2.14 7.748h-.05L100.14 9.19a.364.364 0 0 0-.35-.262h-3.65a.365.365 0 0 0-.35.266l-2.19 7.75h-.076l-2.116-7.747a.365.365 0 0 0-.352-.269h-3.713a.364.364 0 0 0-.345.484l4.125 11.943a.365.365 0 0 0 .345.246h3.67a.365.365 0 0 0 .348-.257l2.364-7.632h.05l2.414 7.634a.363.363 0 0 0 .348.255h3.672a.364.364 0 0 0 .344-.245l4.149-11.944a.37.37 0 0 0-.177-.444.366.366 0 0 0-.167-.04Zm21.009-4.955h-3.52a.37.37 0 0 0-.258.106.357.357 0 0 0-.107.258v16.899a.367.367 0 0 0 .365.365h3.52a.364.364 0 0 0 .365-.365V4.337a.357.357 0 0 0-.225-.337.365.365 0 0 0-.14-.027Zm6.971 0h-3.52a.364.364 0 0 0-.365.364v16.899a.363.363 0 0 0 .365.365h3.52a.361.361 0 0 0 .258-.107.357.357 0 0 0 .107-.258V4.337a.371.371 0 0 0-.107-.258.361.361 0 0 0-.258-.106Zm-22.822 13.505a3.093 3.093 0 0 1-.573-1.056 3.969 3.969 0 0 1-.191-1.209c0-.407.064-.805.191-1.196a2.98 2.98 0 0 1 .573-1.03c.254-.297.568-.539.941-.725.373-.187.806-.28 1.298-.28.475 0 .899.093 1.272.28.373.186.691.432.955.737.262.306.466.654.61 1.044a3.41 3.41 0 0 1 0 2.392 3.39 3.39 0 0 1-.61 1.043 3.052 3.052 0 0 1-.955.738 2.8 2.8 0 0 1-1.272.28c-.492 0-.925-.093-1.298-.28a2.885 2.885 0 0 1-.941-.738Zm8.923-8.983h-2.908a.498.498 0 0 0-.479.357l-.34 1.149c-.362-.319-.821-.617-1.377-.895-.714-.356-1.589-.534-2.622-.534h-.001c-.916 0-1.743.178-2.482.534a5.681 5.681 0 0 0-1.883 1.45 6.61 6.61 0 0 0-1.195 2.125 7.635 7.635 0 0 0-.42 2.533c0 .882.135 1.73.407 2.544a6.527 6.527 0 0 0 1.183 2.15 5.84 5.84 0 0 0 1.896 1.489c.746.373 1.594.56 2.545.56.218 0 .434-.012.647-.035.777-.065 1.455-.24 2.032-.527.684-.341 1.225-.713 1.628-1.113l.316.973a.497.497 0 0 0 .475.345h2.578a.37.37 0 0 0 .258-.106.357.357 0 0 0 .107-.258V8.86a.367.367 0 0 0-.365-.365Zm-51.084.113-.031-.006.047-.03c-.105 0-.208.003-.31.007a4.952 4.952 0 0 0-.255-.007c-.55 0-1.052.104-1.508.307-.188.063-.372.14-.55.227-.672.336-1.202.702-1.591 1.098l-.256-.898a.5.5 0 0 0-.48-.363h-2.758a.365.365 0 0 0-.364.365v11.928a.365.365 0 0 0 .365.365h3.443a.365.365 0 0 0 .365-.365v-6.132c0-.254.051-.55.153-.888.102-.338.267-.651.496-.94.23-.287.535-.532.916-.735.382-.203.852-.305 1.412-.305.17 0 .344.009.522.026l.168.02a.365.365 0 0 0 .399-.327l.14-2.945a.365.365 0 0 0-.323-.402Zm-18.726 5.206c.017-.322.102-.632.255-.929.152-.296.36-.56.61-.776.256-.22.552-.395.891-.522.34-.127.713-.19 1.12-.19.831 0 1.455.237 1.87.712.416.475.624 1.043.624 1.705h-5.37Zm7.431-3.461a5.607 5.607 0 0 0-2.01-1.361c-.78-.314-1.638-.471-2.57-.471-.967 0-1.867.161-2.698.483a6.473 6.473 0 0 0-2.163 1.362 6.353 6.353 0 0 0-1.45 2.137c-.357.84-.535 1.778-.535 2.812 0 1.07.182 2.02.547 2.85a6.015 6.015 0 0 0 1.502 2.1 6.54 6.54 0 0 0 2.226 1.297 8.112 8.112 0 0 0 2.698.446c1.29 0 2.421-.234 3.397-.7a6.002 6.002 0 0 0 1.575-1.08.427.427 0 0 0 .007-.61l-1.803-1.812a.422.422 0 0 0-.6-.005c-.24.247-.521.457-.846.631-.458.247-1.018.37-1.679.37-.374 0-.734-.06-1.082-.179a3.308 3.308 0 0 1-.941-.496 2.735 2.735 0 0 1-.687-.75 2.216 2.216 0 0 1-.319-.967h9.187c.017-.161.026-.323.025-.484v-.509c0-1.085-.157-2.052-.47-2.9-.315-.85-.75-1.57-1.31-2.164Zm82.219 3.46c.017-.321.102-.631.254-.928.152-.296.36-.56.611-.776.255-.22.551-.395.891-.522.339-.127.713-.19 1.12-.19.831 0 1.454.237 1.87.712.415.475.624 1.043.624 1.705h-5.37Zm7.431-3.46a5.609 5.609 0 0 0-2.011-1.361c-.78-.314-1.637-.471-2.57-.471-.967 0-1.866.161-2.697.483a6.456 6.456 0 0 0-2.163 1.362 6.35 6.35 0 0 0-1.451 2.137c-.356.84-.534 1.778-.534 2.812 0 1.07.182 2.02.547 2.85a6.025 6.025 0 0 0 1.501 2.1 6.54 6.54 0 0 0 2.227 1.297 8.108 8.108 0 0 0 2.697.446c1.29 0 2.422-.234 3.397-.7a6.006 6.006 0 0 0 1.576-1.08.419.419 0 0 0 .131-.304.429.429 0 0 0-.125-.307l-1.802-1.811a.422.422 0 0 0-.6-.005c-.24.247-.521.457-.846.631-.458.247-1.018.37-1.68.37-.373 0-.734-.06-1.081-.179a3.309 3.309 0 0 1-.942-.496 2.755 2.755 0 0 1-.687-.75 2.214 2.214 0 0 1-.318-.967h9.187c.017-.161.025-.323.025-.484v-.509c0-1.085-.157-2.052-.471-2.9-.314-.85-.75-1.57-1.31-2.164M8.615.052A.8.8 0 0 0 8.335 0H.571A.57.57 0 0 0 0 .57v8.097L8.615.052ZM.167 25.832A.568.568 0 0 0 .571 26h7.525a.57.57 0 0 0 .57-.57v-8.096L.168 25.833ZM17.34 8.668v17.26a.802.802 0 0 0 .052.022l8.614-8.615-8.666-8.667Z" fill="#4A4656"/><path d="M8.667 17.334V.073C8.65.066 8.633.058 8.615.052L0 8.667V25.43c0 .157.064.3.167.403l8.5-8.5Zm17.333 0V.57A.57.57 0 0 0 25.43 0h-7.526a.57.57 0 0 0-.57.57v8.097L26 17.334Zm0 0-8.615 8.615a.796.796 0 0 0 .28.051h7.764a.57.57 0 0 0 .57-.57v-8.096ZM8.661 17.334Zm8.666-8.667Z" fill="#4A4656"/><path d="M8.895.234a.795.795 0 0 0-.235-.16v17.259l8.432 8.432a.803.803 0 0 0 .235.162V8.666L8.895.234Z" fill="#4A4656"/></svg>