<svg width="98" height="26" fill="none" xmlns="http://www.w3.org/2000/svg"><path d="M14.12 24.324c-1.448.254-2.92.33-4.444.533L5.029 11.248v14.194c-1.447.152-2.767.355-4.138.558V0h3.86l5.28 14.752V0h4.088v24.324Zm7.997-14.803c1.575 0 3.987-.076 5.434-.076v4.063c-1.803 0-3.91 0-5.434.076v6.043c2.387-.152 4.774-.356 7.186-.432v3.91l-11.248.889V0h11.248v4.063h-7.186V9.52ZM44.41 4.063h-4.215V22.75c-1.37 0-2.742 0-4.062.05V4.064h-4.215V0H44.41v4.063Zm6.602 5.18h5.56v4.062h-5.56v9.217h-3.987V0h11.35v4.063h-7.363v5.18Zm13.965 9.724c2.31.05 4.646.229 6.906.355v4.012c-3.631-.229-7.262-.457-10.969-.533V0h4.063v18.967Zm10.334 4.646c1.294.077 2.665.153 3.986.305V0H75.31v23.613ZM97.096 0 91.94 12.365 97.096 26c-1.524-.203-3.047-.482-4.57-.736l-2.92-7.516-2.971 6.906c-1.473-.254-2.895-.33-4.367-.533l5.23-11.908L82.775 0h4.367l2.666 6.83L92.652 0h4.444Z" fill="#4A4656"/></svg>