<svg width="12" height="10" fill="none" xmlns="http://www.w3.org/2000/svg"><path d="M4.586 1.126c-.546.662-1.422 1.722-1.614 2.998-.074.497-.149 1.375.911 1.573.97.182 2.07 1.822.745 3.56-.653.857-3.177 1.49-4.306-1.159-.635-1.49-.762-5.166 3.81-7.947.49-.298 1.25-.166.828.497-.078.12-.211.282-.374.478ZM11.347 1.126c-.546.662-1.423 1.722-1.614 2.998-.075.497-.15 1.375.91 1.573.97.182 2.07 1.822.746 3.56-.653.857-3.178 1.49-4.306-1.159-.635-1.49-.762-5.166 3.809-7.947.49-.298 1.251-.166.828.497-.077.12-.21.282-.373.478Z" fill="#fff"/></svg>