<svg width="12" height="10" viewBox="0 0 12 10" fill="none" xmlns="http://www.w3.org/2000/svg">
<path d="M4.58645 1.12647C4.04007 1.78762 3.16357 2.84822 2.97207 4.12446C2.89755 4.62114 2.82301 5.49867 3.88301 5.69735C4.85242 5.87905 5.95332 7.51858 4.62832 9.25706C3.97499 10.1143 1.45079 10.7472 0.322078 8.09808C-0.312817 6.60797 -0.439795 2.93237 4.13145 0.150831C4.62113 -0.147162 5.38282 -0.0147061 4.95957 0.647534C4.88216 0.768652 4.74889 0.929909 4.58645 1.12647Z" fill="white"></path>
<path d="M11.347 1.12647C10.8006 1.78762 9.92413 2.84822 9.73264 4.12446C9.65811 4.62114 9.58357 5.49867 10.6436 5.69735C11.613 5.87905 12.7139 7.51858 11.3889 9.25706C10.7356 10.1143 8.21135 10.7472 7.08264 8.09808C6.44775 6.60797 6.32077 2.93237 10.892 0.150831C11.3817 -0.147162 12.1434 -0.0147061 11.7201 0.647534C11.6427 0.768652 11.5095 0.929908 11.347 1.12647Z" fill="white"></path>
</svg>
