<svg width="98" height="77" fill="none" xmlns="http://www.w3.org/2000/svg"><path d="M2.347 65.796c.072.324.222.648.45.972.24.312.564.576.972.792.42.204.954.306 1.602.306.924 0 1.608-.216 2.052-.648.444-.432.666-.942.666-1.53 0-.468-.126-.852-.378-1.152-.252-.3-.594-.546-1.026-.738a9.764 9.764 0 0 0-1.458-.54c-.48-.132-.96-.276-1.44-.432a6.628 6.628 0 0 1-1.278-.612 2.847 2.847 0 0 1-.918-.972c-.228-.396-.342-.888-.342-1.476 0-.708.168-1.32.504-1.836.336-.528.81-.936 1.422-1.224.612-.288 1.326-.432 2.142-.432.708 0 1.326.102 1.854.306.528.204.966.492 1.314.864.36.36.624.78.792 1.26L8 59.19a2 2 0 0 0-.486-.792 2.71 2.71 0 0 0-.936-.648 3.249 3.249 0 0 0-1.314-.252c-.48 0-.918.084-1.314.252-.384.168-.69.408-.918.72-.228.312-.342.69-.342 1.134 0 .48.132.864.396 1.152.276.276.636.504 1.08.684.456.168.954.33 1.494.486a21.9 21.9 0 0 1 1.422.504c.468.18.882.402 1.242.666.372.264.666.594.882.99.216.396.324.882.324 1.458 0 .636-.15 1.23-.45 1.782-.3.54-.756.978-1.368 1.314-.6.324-1.374.486-2.322.486-.792 0-1.488-.12-2.088-.36-.6-.252-1.092-.588-1.476-1.008-.384-.42-.648-.9-.792-1.44l1.314-.522Zm13.324 3.33c-.876 0-1.644-.192-2.304-.576a4.058 4.058 0 0 1-1.548-1.602c-.36-.696-.54-1.5-.54-2.412 0-.924.18-1.734.54-2.43a4 4 0 0 1 1.548-1.638c.66-.396 1.428-.594 2.304-.594.924 0 1.734.216 2.43.648.696.42 1.2 1.008 1.512 1.764l-1.242.432c-.18-.48-.51-.858-.99-1.134-.468-.288-1.014-.432-1.638-.432-.612 0-1.146.138-1.602.414a2.832 2.832 0 0 0-1.044 1.17c-.24.504-.36 1.098-.36 1.782 0 1.008.27 1.818.81 2.43.54.6 1.26.9 2.16.9.612 0 1.158-.138 1.638-.414a2.57 2.57 0 0 0 1.062-1.116l1.224.432a3.734 3.734 0 0 1-1.53 1.746c-.696.42-1.506.63-2.43.63ZM21.84 60h1.242l.072 1.314c.24-.324.528-.6.864-.828a3.245 3.245 0 0 1 1.134-.468c.42-.096.864-.102 1.332-.018v1.35c-.504-.096-.96-.096-1.368 0a2.29 2.29 0 0 0-1.026.54 2.6 2.6 0 0 0-.666 1.008c-.156.396-.234.858-.234 1.386V69h-1.35v-9Zm10.199 9.126c-.852 0-1.614-.186-2.286-.558-.672-.372-1.2-.9-1.584-1.584-.384-.696-.576-1.518-.576-2.466 0-.96.192-1.788.576-2.484.396-.696.93-1.23 1.602-1.602.684-.372 1.452-.558 2.304-.558.852 0 1.614.186 2.286.558a3.96 3.96 0 0 1 1.602 1.602c.396.684.594 1.5.594 2.448 0 .96-.198 1.788-.594 2.484a4.078 4.078 0 0 1-1.62 1.602c-.684.372-1.452.558-2.304.558Zm-.018-1.278c.528 0 1.026-.114 1.494-.342.468-.24.846-.606 1.134-1.098.3-.504.45-1.14.45-1.908 0-.78-.144-1.416-.432-1.908-.288-.492-.666-.852-1.134-1.08a3.122 3.122 0 0 0-1.476-.36c-.528 0-1.02.12-1.476.36-.456.228-.828.594-1.116 1.098-.276.492-.414 1.122-.414 1.89 0 .78.138 1.416.414 1.908.276.492.636.858 1.08 1.098.456.228.948.342 1.476.342Zm6.747-11.808h1.35V69h-1.35V56.04Zm4.096 0h1.35V69h-1.35V56.04Zm13.442.36c1.392 0 2.58.258 3.564.774a5.278 5.278 0 0 1 2.286 2.178c.54.948.81 2.076.81 3.384 0 1.296-.27 2.412-.81 3.348-.528.936-1.29 1.656-2.286 2.16-.984.504-2.172.756-3.564.756h-4.158V56.4h4.158Zm0 11.34c1.716 0 3.012-.438 3.888-1.314.876-.876 1.314-2.106 1.314-3.69 0-1.596-.438-2.838-1.314-3.726-.876-.9-2.172-1.35-3.888-1.35h-2.718v10.08h2.718Zm12.7 1.386c-.852 0-1.614-.186-2.286-.558-.672-.372-1.2-.9-1.584-1.584-.385-.696-.577-1.518-.577-2.466 0-.96.192-1.788.576-2.484.397-.696.93-1.23 1.603-1.602.684-.372 1.452-.558 2.303-.558.852 0 1.614.186 2.286.558a3.96 3.96 0 0 1 1.603 1.602c.395.684.593 1.5.593 2.448 0 .96-.198 1.788-.594 2.484a4.078 4.078 0 0 1-1.62 1.602c-.684.372-1.452.558-2.304.558Zm-.018-1.278c.528 0 1.026-.114 1.494-.342.468-.24.846-.606 1.134-1.098.3-.504.45-1.14.45-1.908 0-.78-.144-1.416-.433-1.908-.288-.492-.666-.852-1.133-1.08a3.122 3.122 0 0 0-1.477-.36c-.528 0-1.02.12-1.476.36-.456.228-.828.594-1.116 1.098-.276.492-.414 1.122-.414 1.89 0 .78.138 1.416.414 1.908.276.492.636.858 1.08 1.098.456.228.948.342 1.477.342ZM78.69 69h-1.224l-2.826-9h1.368l2.07 7.326L80.4 60h1.224l2.286 7.308L85.962 60h1.332l-2.808 9h-1.242l-2.268-6.984L78.69 69Zm10.438-9h1.242l.072 1.278a2.917 2.917 0 0 1 1.134-1.026c.468-.252 1.014-.378 1.638-.378.684 0 1.284.15 1.8.45.516.288.918.726 1.206 1.314.288.576.432 1.302.432 2.178V69h-1.35v-5.022c0-.936-.204-1.644-.612-2.124-.396-.492-.972-.738-1.728-.738-.78 0-1.392.258-1.836.774-.432.516-.648 1.278-.648 2.286V69h-1.35v-9Z" fill="#666270"/><path d="M50.2 1h-2.4C41.835 1 37 5.835 37 11.8v14.4C37 32.165 41.835 37 47.8 37h2.4C56.165 37 61 32.165 61 26.2V11.8C61 5.835 56.165 1 50.2 1Z" stroke="#666270" stroke-width="2" stroke-linecap="round" stroke-linejoin="round"/><path d="M51.4 11.8a2.4 2.4 0 1 1-4.8 0V9.4a2.4 2.4 0 0 1 4.8 0v2.4Z" stroke="#666270" stroke-width="2" stroke-linecap="round" stroke-linejoin="round"/></svg>