<svg width="118" height="26" fill="none" xmlns="http://www.w3.org/2000/svg"><path d="M13.312 8.447H18.8l.543-2.292s.723-3.136-1.569-4.644c0 0-1.568-1.508-5.729-1.508 0 0-4.764-.18-7.056 2.111 0 0-2.774 2.473-2.232 6.936 0 0 .362 2.11 2.473 3.679l4.825 3.256s1.81 1.267.784 3.68c0 0-.362 1.688-2.774 1.507 0 0-2.413.12-2.473-2.05 0 0 .12-1.448.482-2.292H.707s-2.533 6.996 2.714 8.624c0 0 7.478 1.99 11.278-1.628 0 0 3.498-3.619 1.99-8.745 0 0-.422-1.387-2.11-2.473L9.15 8.929S7.643 7.663 8.91 5.793c0 0 .422-1.025 2.593-.965 0 0 2.533-.06 2.111 2.111l-.301 1.508ZM22.057.486h5.608l-1.568 6.996s2.955-.664 5.066-.06c0 0 3.197.482 2.292 4.643L30.56 25.152h-5.609l2.654-11.82s.482-1.689-1.025-1.689c0 0-.965 0-1.387.181l-2.956 13.328H16.63L22.056.486ZM42.2 5.069 43.225.486h-5.609l-1.025 4.583H42.2Zm-4.463 20.144 3.98-17.973H36.11l-4.041 17.973h5.669Zm1.508 0L43.225 7.3h9.89s3.197.18 2.835 3.196l-9.71.664 9.228.784-9.59.603 9.228.784-9.59.663 1.81.362-2.412 10.795h-5.67v.06Z" fill="#4A4656"/><path d="m49.616 14.538 5.548.302-1.87 10.313h-6.03l2.352-10.615Zm6.754-4.945L57.878.486h1.086L56.37 9.593Zm1.327 0L59.205.426h1.086l-2.594 9.167Zm1.327 0L60.532.486h1.085l-2.593 9.107Zm1.327 0L61.859.486h1.085l-2.593 9.107Zm1.327 0L63.185.486h1.086l-2.593 9.107ZM60.117 16.106l-1.508 9.107h-1.086l2.594-9.107Zm-1.327 0-1.508 9.107h-1.085l2.593-9.107Zm-1.327 0-1.508 9.107H54.87l2.593-9.107Zm-1.327 0-1.508 9.107h-1.085l2.593-9.107ZM64.52.426h13.69l-.964 4.282h-8.082l-1.266 5.548h6.151l-1.025 4.523H66.87l-1.266 5.73h8.081l-1.025 4.644h-13.69l2.834-10.374 10.193-.784-9.228-.723 9.348-.784-8.865-.664 9.227-.784-9.65-.723L64.52.425Zm14.595 0h5.428L83.034 7.06h4.704l-1.025 4.523H82.13l-1.81 7.96s-.482 1.388 1.146 1.388h3.076l-.844 3.86s-2.413 1.085-5.368.422c0 0-4.704-.422-3.377-5.79L79.114.426Zm17.309 12.363h4.764s1.327-3.558-1.688-5.126c0 0-1.81-1.086-5.127-.905 0 0-2.774 0-4.523 1.146 0 0-3.076 1.75-2.231 5.97 0 0 .482 1.448 1.628 2.112l4.463 2.713s.844.845.422 1.75c0 0-.12.964-1.81.964 0 0-1.748.242-1.748-1.326 0 0 0-.664.12-1.568h-4.885s-1.085 3.075.06 4.643c0 0 1.026 2.232 6.092 2.232 0 0 5.428.482 6.996-2.895 0 0 1.809-3.377-.12-5.73 0 0-.905-.964-2.111-1.567l-3.016-1.629s-1.327-.603-1.025-1.87c0 0 .06-1.145 1.93-1.205 0 .06 2.231-.121 1.809 2.291Zm6.996-5.73h5.609l-2.775 12.244s-.241 1.387.664 1.387h1.688L111.681 7h5.609l-3.92 17.73-6.453.604s-3.86.24-5.247-1.508c0 0-1.81-1.267-.905-5.488l2.654-11.278Z" fill="#4A4656"/></svg>