<svg width="18" height="14" fill="none" xmlns="http://www.w3.org/2000/svg"><path d="M18 1.717a8.034 8.034 0 0 1-2.126.552A3.515 3.515 0 0 0 17.497.338a7.63 7.63 0 0 1-2.34.846A3.798 3.798 0 0 0 12.462.078c-2.043 0-3.688 1.57-3.688 3.495 0 .277.025.543.085.796C5.792 4.228 3.077 2.836 1.253.715a3.376 3.376 0 0 0-.505 1.766c0 1.21.658 2.282 1.64 2.903a3.803 3.803 0 0 1-1.668-.43v.038C.72 6.69 2 8.1 3.677 8.425a3.88 3.88 0 0 1-.968.115c-.236 0-.475-.013-.699-.06.479 1.384 1.835 2.401 3.449 2.434a7.683 7.683 0 0 1-4.576 1.49c-.302 0-.593-.012-.883-.047a10.817 10.817 0 0 0 5.661 1.567c6.79 0 10.503-5.325 10.503-9.941 0-.155-.006-.304-.014-.452A7.157 7.157 0 0 0 18 1.717Z" fill="#fff"/></svg>